<?xml version="1.0" encoding="utf-8"?>
<!DOCTYPE svg PUBLIC "-//W3C//DTD SVG 1.0//EN" "http://www.w3.org/TR/2001/REC-SVG-20010904/DTD/svg10.dtd">
<svg version="1.0" xmlns="http://www.w3.org/2000/svg" width="1024px" height="1024px" viewBox="0 0 1024 1024" preserveAspectRatio="xMidYMid meet">
 <g fill="#22505b">
  <path d="M463.4 678.1 c0.6 -0.8 0.1 -1 -1.6 -0.6 -3.1 0.8 -12.4 -2.7 -16.3 -6.1 -1.6 -1.4 -2.3 -2.2 -1.5 -1.8 0.9 0.4 1.2 0.3 0.7 -0.2 -0.5 -0.5 -1.2 -0.9 -1.5 -1 -2 -0.2 -4.3 -1.9 -5.7 -4.1 -1 -1.4 -1.2 -2.2 -0.6 -1.9 0.7 0.4 0.9 0.1 0.5 -0.8 -0.3 -0.9 -1.1 -1.4 -1.7 -1.3 -0.7 0.1 -1.1 -0.6 -1.1 -1.5 0.1 -1 -0.2 -1.6 -0.6 -1.3 -1.2 0.7 -3.8 -6.6 -4.9 -13.7 -0.7 -4.1 -0.7 -8.6 -0.1 -12.8 0.5 -3.6 1 -6.9 1 -7.5 0 -0.5 0.5 -0.3 1.1 0.5 0.8 1.2 0.9 1 0.4 -0.7 -0.3 -1.3 0.1 -3.6 1.1 -5.5 2.5 -5 7.5 -10.9 8.5 -10.2 0.5 0.3 0.8 0 0.7 -0.6 -0.5 -2.1 6.9 -7.3 10.4 -7.4 1.9 -0.1 3.2 -0.6 3.1 -1.2 -0.3 -1.7 7.5 -3.4 15.5 -3.4 7.8 0 17.6 2.5 16.6 4.2 -0.5 0.7 0 0.9 1.4 0.6 1.5 -0.4 3.5 0.4 6.2 2.3 3.6 2.6 5.7 5.1 2.9 3.3 -0.7 -0.4 -1 -0.1 -0.7 0.7 0.3 0.8 1.5 1.5 2.7 1.5 2.5 0.1 5.3 3.3 4.6 5.2 -0.3 0.8 0.2 2.3 1 3.5 0.8 1.2 1.5 1.7 1.5 1.1 0 -0.5 -0.5 -1.5 -1.2 -2.2 -0.6 -0.6 -0.9 -1.5 -0.5 -1.8 0.4 -0.4 1.9 2 3.4 5.2 2.6 5.5 2.8 6.8 2.8 18.4 0 11.5 -0.2 13 -2.7 18.3 -1.8 3.8 -3.2 5.6 -3.9 5.1 -0.8 -0.4 -0.9 -0.3 -0.5 0.5 0.9 1.4 -1.2 4.3 -2.5 3.5 -0.5 -0.3 -0.8 0 -0.7 0.8 0.2 0.7 -0.3 1.2 -1 1 -0.8 -0.1 -1.1 0.2 -0.8 0.7 0.9 1.4 -6 6.4 -7.5 5.5 -0.7 -0.4 -0.9 -0.3 -0.5 0.4 1.2 1.9 -10.3 5.4 -19.8 6 -6.7 0.4 -8.7 0.2 -8.2 -0.7z m17.8 -14.4 c0.9 -0.1 1.4 -0.5 1.2 -0.9 -0.5 -0.8 0.2 -1 3.6 -1.2 0.8 -0.1 1.5 -0.6 1.5 -1.1 0 -0.6 1.2 -2.6 2.7 -4.6 4.6 -6 6.1 -10.7 5.9 -18.6 -0.2 -9.6 -0.4 -11.3 -1.2 -11.3 -0.7 0 -2.2 -3.6 -2.2 -5 0 -0.3 -0.8 -1.1 -1.9 -1.8 -1 -0.7 -1.6 -1.8 -1.3 -2.3 0.4 -0.5 0.2 -0.9 -0.4 -0.9 -1.3 0 -8.1 -4.6 -7.6 -5.1 0.2 -0.2 -1.3 -0.6 -3.3 -0.8 -8.7 -0.9 -20.3 -0.1 -19.4 1.3 0.3 0.5 -0.2 0.6 -1.2 0.3 -0.9 -0.4 -1.5 -0.3 -1.2 0.2 0.6 0.9 -4.4 4.7 -5.7 4.3 -0.4 -0.1 -0.6 0.1 -0.6 0.5 0.3 2.1 -0.2 3.4 -1.1 2.8 -0.6 -0.4 -0.9 -0.3 -0.8 0.2 0.4 1.7 -1.4 5.3 -2.4 4.7 -0.6 -0.4 -0.8 -0.3 -0.5 0.3 0.3 0.5 0.2 3.9 -0.4 7.6 -1.1 6.7 -1 6.9 3 21.2 0.5 1.7 0.9 2.5 1 1.9 0.1 -1.4 7.6 5.5 7.6 7 0 0.6 2 1.2 4.4 1.3 2.4 0.2 4.7 0.6 5 0.9 0.3 0.3 3.5 0.3 7.1 -0.1 3.6 -0.3 7.3 -0.7 8.2 -0.8z"/>
  <path d="M551.2 677.9 c-5.1 -1 -13.7 -4.9 -16.9 -7.7 -3.1 -2.8 -3.9 -6.5 -1.6 -8.3 1.7 -1.3 1.7 -1.3 0.3 0.6 -1.4 1.9 -1.4 1.9 0.2 0.6 1 -0.7 1.5 -1.8 1.2 -2.3 -0.8 -1.3 2.5 -4.8 4.5 -4.8 2.1 0 8.1 4.9 6.1 5 -0.8 0 -0.3 0.7 1.3 1.6 1.5 0.8 3.1 1.3 3.5 1 0.4 -0.2 2.9 0 5.6 0.6 5.9 1.2 12.3 0.4 15.5 -2.1 1.9 -1.5 2.5 -2.8 2.4 -5.8 -0.2 -5.2 -0.5 -7.2 -1.2 -7.1 -1.5 0.3 -6 -2.6 -5.4 -3.5 0.3 -0.6 0.2 -0.7 -0.4 -0.4 -0.5 0.3 -2.6 0.1 -4.7 -0.5 -2.6 -0.8 -3.3 -1.4 -2.4 -2 0.9 -0.6 0.5 -0.7 -0.9 -0.3 -5.3 1.5 -24.9 -11.1 -22.8 -14.6 0.5 -0.7 0.4 -1 -0.3 -0.5 -3.3 2 -3.4 -13.3 -0.2 -20 4.8 -9.9 19.5 -14.6 35 -11.3 3.1 0.7 5 1.6 5 2.5 0 0.9 1.1 1.4 2.9 1.4 1.8 0 4.1 1 5.8 2.6 1.5 1.4 2.2 2.3 1.6 1.9 -0.8 -0.4 -1.3 0 -1.3 0.9 0 0.9 0.6 1.6 1.3 1.6 0.9 0 0.9 0.2 -0.1 0.9 -0.8 0.4 -1.3 1.2 -1.2 1.6 0.3 1.1 -3.9 6.5 -5.1 6.5 -0.6 0 -0.7 -0.5 -0.3 -1.2 0.4 -0.6 0.3 -0.8 -0.3 -0.5 -0.6 0.4 -3 -0.4 -5.4 -1.7 -7 -3.9 -12.2 -5.1 -16 -3.7 -2.5 0.9 -3.5 0.8 -4.2 -0.1 -0.6 -1 -0.8 -0.9 -0.4 0.3 0.3 0.8 -0.3 2 -1.3 2.7 -2.3 1.4 -3.2 5.4 -2 8.7 0.7 1.9 2.7 3.4 7 5.3 3.5 1.6 6 3.3 6 4.2 0 1.2 0.2 1.2 0.9 0.2 0.7 -1.1 2.2 -0.8 7.7 1.6 3.8 1.7 8.1 4.2 9.6 5.6 1.5 1.4 3.1 2.6 3.7 2.6 1.5 0 4.3 5.8 3.5 7.2 -0.4 0.6 -0.3 0.8 0.3 0.5 1.1 -0.7 2.3 3.6 2.3 7.7 0 3.6 -2.1 9.7 -3 9.1 -0.6 -0.4 -0.7 0.1 -0.3 1.1 0.5 1.3 0.3 1.5 -0.7 0.9 -0.9 -0.6 -1.1 -0.4 -0.5 0.4 1.1 1.9 -3.4 6.2 -6.1 5.7 -1.3 -0.3 -2.5 0.1 -2.8 1 -0.5 1.2 -0.2 1.2 1.5 0.3 1.3 -0.7 1.9 -0.7 1.5 -0.1 -1 1.7 -9.4 4.5 -11.6 3.9 -1.1 -0.3 -2 -0.1 -2 0.4 0 1.1 -8.9 1 -14.8 -0.2z"/>
  <path d="M102.2 675.7 c-0.9 -1 -0.9 -6.9 -0.2 -22.3 0.5 -11.5 1.2 -27.2 1.5 -34.9 0.3 -7.7 0.9 -15.1 1.2 -16.5 0.4 -1.4 0.7 -2.9 0.7 -3.5 0.1 -0.6 3.8 -1.1 8.6 -1.3 5.9 -0.1 8 0.1 7 0.8 -1.4 0.9 -1.3 1.1 1.1 1.4 1.7 0.2 6.8 13.1 6.2 15.8 -0.3 1.5 -0.2 1.9 0.4 1 1.1 -1.5 10 19.1 9.5 21.9 -0.2 1 0.2 2.7 0.8 3.6 0.8 1.5 0.9 1.2 0.5 -1.2 -0.4 -1.8 0.5 -0.6 2.1 3 3.2 7.3 3 7.1 4.8 5.2 0.8 -0.8 1.3 -1.7 1 -2 -0.5 -0.5 19.3 -47.6 20.7 -49.1 1.3 -1.4 14.8 -0.8 16.3 0.7 0.8 0.8 1.5 5.5 1.9 12.2 1.8 31.1 2.8 54.6 2.5 60 l-0.3 6 -6.5 0 c-4.7 0 -6.4 -0.4 -6.2 -1.2 0.1 -0.7 -0.2 -1.3 -0.7 -1.3 -0.7 0 -2.6 -37.8 -2.4 -48.7 0.1 -1.8 -0.2 -3.3 -0.7 -3.3 -1.1 0 -3.1 2.6 -2.4 3.2 0.9 1 -7.8 20.8 -8.9 20.1 -0.6 -0.4 -0.7 -0.1 -0.3 0.6 1 1.6 -9.4 27.2 -10.7 26.4 -0.6 -0.3 -0.7 -0.1 -0.3 0.6 0.4 0.6 0.3 1.8 -0.3 2.5 -1.4 1.7 -7.7 1.4 -7.4 -0.2 0.2 -0.7 -0.3 -1.1 -1 -0.9 -0.7 0.1 -1.2 -0.7 -1.1 -2 0 -1.2 -0.3 -2 -0.7 -1.8 -1 0.7 -7.2 -14.6 -7.2 -17.8 0 -1.6 -0.3 -2.4 -0.7 -1.7 -0.4 0.6 -3.3 -5.6 -6.6 -13.8 -3.2 -8.3 -6.1 -14.9 -6.3 -14.7 -0.2 0.3 -0.6 9.8 -0.8 21.2 -0.3 11.4 -0.8 23.5 -1.2 26.8 l-0.6 6 -6.1 0.3 c-4.2 0.2 -6.4 -0.1 -7.2 -1.1z m82.5 -71.9 c-0.2 -1.3 -0.4 -0.5 -0.4 1.7 -0.1 2.2 0.1 3.2 0.4 2.3 0.2 -1 0.2 -2.8 0 -4z"/>
  <path d="M206.7 676.3 c-0.8 -1.3 3.6 -13.2 4.6 -12.6 0.6 0.3 0.7 0.1 0.3 -0.5 -0.7 -1.1 0.8 -6 6.3 -21.1 1.7 -4.6 3.1 -8.6 3.1 -8.8 0 -0.2 0.4 -0.1 1 0.2 0.5 0.3 0.7 0 0.5 -0.7 -0.4 -1.1 10.7 -34.3 11.8 -35.5 0.2 -0.2 3.3 -0.6 6.9 -0.9 6 -0.5 6.7 -0.4 8.7 1.8 1.6 1.6 2 1.8 1.6 0.6 -0.4 -1 -0.3 -1.8 0.2 -1.8 1.4 0 5.6 12.7 4.7 14.1 -0.4 0.7 -0.3 0.9 0.3 0.6 0.6 -0.4 1.4 0.1 1.7 1 0.4 0.9 0.1 2 -0.6 2.5 -1 0.6 -0.9 0.8 0.2 0.8 1.1 0 2.9 3.5 5.5 10.7 2.2 5.9 4.2 11.2 4.4 11.7 0.2 0.5 -0.1 0.6 -0.8 0.2 -0.6 -0.4 -1.1 -0.2 -1.1 0.3 0 0.6 0.6 1.1 1.3 1.1 0.6 0 2.4 3.5 3.9 7.7 2.1 5.9 2.5 7.9 1.5 8.6 -0.8 0.6 -0.8 0.7 0.4 0.4 1.2 -0.4 2.3 1.6 4.7 8.7 1.8 5 3.2 9.7 3.2 10.4 0 0.9 -2 1.2 -7.5 1.1 -8.4 -0.2 -9.9 -1.1 -9.9 -6.5 0 -1.8 -0.3 -2.9 -0.7 -2.3 -0.3 0.6 -0.9 0.1 -1.2 -1.3 -1 -3.3 -0.8 -4 0.5 -3.2 0.7 0.4 0.8 0.3 0.4 -0.5 -0.4 -0.6 -1.2 -0.9 -1.7 -0.6 -0.5 0.4 -0.9 0 -0.9 -0.8 0 -0.8 -0.6 -1.7 -1.2 -1.9 -1 -0.4 -25.4 -0.3 -30.5 0.1 -0.7 0.1 -1.3 1 -1.3 2.1 0 1.1 -0.4 2 -1 2 -0.5 0 -0.7 -0.8 -0.3 -1.7 0.5 -1.5 0.3 -1.6 -0.7 -0.6 -1 0.9 -1 1.5 -0.2 2.6 0.9 1.1 0.8 2.7 -0.6 6.8 l-1.9 5.4 -7.6 0.3 c-4.1 0.2 -7.7 -0.1 -8 -0.5z m37.1 -29.4 c3 0.2 3.9 0.1 7.2 -0.2 2.4 -0.2 3.4 -0.8 3.1 -1.8 -0.1 -0.8 -0.4 -2.4 -0.5 -3.6 0 -1.3 -0.4 -2.3 -0.8 -2.3 -1.1 0 -6 -15.9 -5.2 -17.1 0.4 -0.8 0.3 -0.9 -0.4 -0.5 -0.7 0.4 -1.3 0 -1.4 -1.1 0 -1 -0.2 -2.4 -0.2 -3 -0.1 -0.7 -0.9 -2 -1.9 -3 -1.6 -1.6 -1.7 -1.6 -1.7 0.2 0 3.7 -5.4 18.5 -6.3 17.2 -0.5 -0.7 -0.6 -0.4 -0.2 0.9 0.3 1.2 -0.3 4.6 -1.5 7.5 -1.8 4.8 -1.8 5.5 -0.5 6.5 0.8 0.6 3.2 0.9 5.3 0.7 2 -0.2 4.3 -0.4 5 -0.4z"/>
  <path d="M300.7 676.3 c-0.4 -0.3 -0.7 -18.3 -0.7 -40 l0 -39.3 5.5 0 c10.1 0 9.5 -2.5 9.5 41.7 l0 38.3 -6.8 0 c-3.8 0 -7.2 -0.3 -7.5 -0.7z"/>
  <path d="M341.3 675.8 c-0.4 -0.7 -0.9 -18.1 -1 -38.5 -0.2 -36.6 -0.1 -37.3 1.8 -37.3 1.2 0 1.7 -0.4 1.4 -1.1 -0.4 -0.6 -1.4 -0.8 -2.2 -0.5 -0.8 0.3 -1.1 0.1 -0.8 -0.4 0.3 -0.6 3.7 -1 7.4 -1 l6.8 0 2.7 4 c1.4 2.2 2.6 4.7 2.6 5.5 0 0.9 0.4 1.4 0.9 1.1 0.5 -0.3 2 1.2 3.5 3.4 1.4 2.2 2.3 4 2 4 -0.4 0 0.5 0.9 2 2.1 2.5 2 3.7 4.7 1.4 3.3 -0.7 -0.4 -0.8 -0.3 -0.4 0.5 0.4 0.6 1.1 0.9 1.6 0.6 1 -0.6 5.5 6.3 5.5 8.5 0 0.8 0.6 1.5 1.2 1.5 1.7 0 8.6 10.3 7.8 11.5 -0.4 0.6 -0.2 0.9 0.4 0.8 0.6 -0.2 2.2 1.1 3.5 2.7 l2.5 3 0.1 -26.2 0 -26.3 5.3 0.1 c4.4 0.1 4.8 0.2 2.2 0.9 l-3 0.8 3.3 0.1 c1.7 0 3.2 -0.3 3.2 -0.9 0 -0.5 0.9 -1 2 -1 2 0 2 0.5 1.8 39.8 l-0.3 39.7 -5.9 0.3 c-4.9 0.3 -6.2 0 -8.3 -1.9 -1.3 -1.3 -2.1 -2.9 -1.9 -3.6 0.3 -0.7 0 -1.2 -0.6 -1 -0.6 0.1 -1.3 -0.4 -1.6 -1.2 -0.3 -0.9 0 -1.1 0.8 -0.6 0.9 0.5 1.1 0.4 0.6 -0.4 -0.4 -0.6 -1.1 -0.9 -1.6 -0.6 -0.4 0.3 -1.4 -0.3 -2.1 -1.2 -1.2 -1.4 -1.2 -1.6 0.1 -0.9 0.8 0.4 0.4 -0.2 -1 -1.3 -1.4 -1.1 -2.1 -2.1 -1.5 -2.1 0.5 0 -0.1 -0.7 -1.3 -1.6 -1.3 -0.9 -2.1 -2.2 -1.8 -3 0.3 -0.8 0.1 -1.3 -0.4 -1.1 -1.3 0.3 -8.1 -9.3 -7.4 -10.5 0.3 -0.5 0.1 -0.7 -0.5 -0.6 -1.4 0.4 -8.2 -9.2 -7.4 -10.5 0.3 -0.6 0.2 -0.7 -0.3 -0.4 -0.5 0.3 -2.5 -1.9 -4.4 -4.8 -1.9 -3 -3.8 -5.4 -4.2 -5.5 -0.5 0 -0.8 1.6 -0.8 3.6 0 2.1 -0.4 3.3 -1 2.9 -0.5 -0.3 -1 -0.1 -1 0.4 0 0.6 0.7 1.1 1.5 1.1 1.3 0 1.5 3 1.5 20.9 0 11.5 -0.3 21.6 -0.6 22.5 -0.8 2 -12.8 2.3 -14.1 0.4z"/>
  <path d="M613.6 676.1 c-0.3 -0.5 0 -1.2 0.6 -1.4 0.8 -0.3 0.6 -0.6 -0.4 -0.6 -1.6 -0.1 -1.7 -2.8 -1.7 -36.3 -0.1 -19.9 0.2 -37.2 0.5 -38.5 0.6 -2 1.2 -2.3 5.9 -2.3 3.5 0 5.7 0.5 6.5 1.5 1.1 1.3 1.5 1.3 2.1 0.3 0.5 -0.7 0.9 4.9 0.9 12.5 0 9 -0.4 13.6 -1 13.2 -0.5 -0.3 -1 -0.1 -1 0.4 0 0.6 0.4 1.1 0.9 1.1 0.4 0 0.6 1.1 0.3 2.5 -0.2 1.5 -0.9 2.2 -1.6 1.8 -0.6 -0.3 -0.7 -0.2 -0.3 0.2 1.1 1.3 3.7 1.5 3.7 0.4 0 -0.6 0.5 -0.7 1 -0.4 0.6 0.4 0.9 0.3 0.8 -0.2 -0.5 -1.4 14.4 -18.3 15.5 -17.6 0.6 0.3 0.7 0.1 0.3 -0.5 -0.8 -1.4 5.3 -8.4 6.7 -7.5 0.5 0.3 0.7 0.2 0.4 -0.4 -0.8 -1.3 2.2 -5.5 3.4 -4.7 0.5 0.3 0.8 0 0.7 -0.7 -0.4 -1.8 4.1 -2.7 9.7 -1.9 2.8 0.4 4.1 0.8 3.1 0.9 -2.4 0.1 -1.9 0.6 1.7 1.5 2.1 0.5 2.7 0.3 2.8 -1.1 0 -1.2 0.2 -1.4 0.6 -0.5 0.6 1.6 -4.6 7.4 -5.8 6.6 -0.5 -0.3 -0.6 0.1 -0.4 0.8 0.3 0.8 -0.7 2.5 -2.2 3.8 -2 1.8 -2.3 1.9 -1.3 0.5 1.4 -1.8 1.4 -1.9 -0.2 -0.6 -1 0.7 -1.6 1.7 -1.3 2.1 0.7 1.1 -10.1 13.5 -11.7 13.5 -0.6 0 -1.2 0.8 -1.4 1.9 -0.3 2.1 -4.4 6.7 -5.4 6.1 -0.3 -0.2 -0.6 1.1 -0.6 3 0 1.8 0.4 3.1 0.7 2.9 0.8 -0.5 13.9 14.9 13.9 16.2 0 0.5 -0.5 0.2 -1.1 -0.6 -0.7 -1 -0.9 -1.1 -0.7 -0.2 0.2 0.8 0.7 1.3 1.2 1.2 1.5 -0.3 6.7 5.4 6.1 6.8 -0.2 0.7 -0.1 1.1 0.4 0.8 1.1 -0.7 7.3 6.2 6.6 7.4 -0.3 0.5 0 1.2 0.6 1.6 0.8 0.5 1 0.2 0.4 -0.7 -0.4 -0.8 0.4 -0.1 1.9 1.5 1.4 1.6 2.3 3.3 2 3.7 -0.3 0.5 -4.3 0.9 -9 0.9 -7.9 0 -8.7 -0.2 -10.9 -2.6 -1.4 -1.5 -2.2 -3.1 -1.9 -3.6 0.3 -0.4 0.2 -0.7 -0.3 -0.6 -0.5 0.2 -3.3 -2.6 -6.4 -6.2 -8.5 -10.1 -9.9 -12.2 -9.2 -13.3 0.3 -0.5 0.1 -0.7 -0.5 -0.3 -0.6 0.3 -3.2 -2.1 -5.9 -5.5 l-4.8 -6.2 -0.5 18.9 -0.5 18.9 -6.7 0.3 c-3.6 0.2 -6.9 -0.1 -7.2 -0.7z"/>
  <path d="M718.7 676.4 c0.7 -0.3 0.9 -1.2 0.6 -2 -0.3 -0.7 -0.9 -1.1 -1.4 -0.8 -0.5 0.3 -0.9 -5.3 -0.9 -13.1 0 -10.7 -0.3 -14.1 -1.6 -16 -0.9 -1.3 -1.2 -3 -0.8 -3.6 0.4 -0.7 0.3 -0.9 -0.3 -0.6 -0.5 0.3 -2 -1.3 -3.3 -3.6 -1.5 -2.7 -1.8 -3.8 -0.9 -3.2 0.8 0.6 0.7 0.3 -0.3 -0.6 -2.6 -2.5 -8.8 -13.5 -8.5 -15.1 0.2 -0.7 0.2 -0.9 -0.1 -0.4 -0.7 1.2 -6.3 -8.7 -5.7 -10.2 0.3 -0.7 0 -1 -0.5 -0.7 -0.9 0.6 -5 -6.3 -5 -8.5 0 -0.6 3.2 -1 8.3 -1 l8.3 0 1.7 3.6 c1 1.9 1.4 4 1.1 4.6 -0.4 0.6 -0.3 0.8 0.3 0.5 0.6 -0.4 2.3 1.7 3.8 4.6 1.9 3.5 2.3 4.7 1.2 3.8 -1.5 -1.2 -1.7 -1.2 -1.1 0.3 0.3 0.9 1.1 1.6 1.8 1.6 0.7 0 2.4 2.4 3.8 5.3 2 4 2.3 5.8 1.6 7.1 -0.8 1.4 -0.7 2.1 0.3 2.7 2.1 1.3 3.9 1.1 4.6 -0.7 0.5 -1.3 0.8 -1.3 1.5 -0.2 0.7 1 0.8 0.9 0.4 -0.5 -0.6 -1.9 13.3 -28.9 14.5 -28.1 0.4 0.2 1.1 -0.1 1.5 -0.7 0.4 -0.8 0.3 -0.9 -0.4 -0.5 -1.6 0.9 -1.5 -0.7 0 -2.2 0.7 -0.7 4.3 -1.2 9.1 -1.2 7.7 0 7.8 0 7.1 2.3 -0.9 3 -4.8 9.5 -5.6 9.3 -0.3 0 -1 0.3 -1.5 0.8 -0.5 0.5 -0.3 0.6 0.5 0.2 1.7 -1 1.5 -0.4 -1.1 4.3 -1.3 2.3 -2.7 3.8 -3.2 3.4 -0.4 -0.5 -0.5 -0.3 -0.1 0.4 0.6 1.1 -2.6 7.6 -3.5 7 -0.2 -0.1 -0.3 0 -0.2 0.2 0.1 0.2 -1.1 3 -2.8 6.3 -1.8 3.6 -3.4 5.6 -4.1 5.2 -0.7 -0.4 -0.8 -0.3 -0.4 0.5 0.4 0.6 -0.4 3.2 -1.8 5.7 -2.4 4.3 -2.6 5.6 -2.6 17.1 0 9.7 -0.3 12.3 -1.2 11.7 -1 -0.6 -1 -0.4 0 0.8 0.7 0.8 1 2.3 0.6 3.2 -0.5 1.3 -2 1.6 -7.8 1.5 -3.9 0 -6.6 -0.3 -5.9 -0.5z"/>
  <path d="M779.4 675.8 c-0.6 -0.9 -0.8 -31.1 -0.5 -71.5 l0.1 -7.3 7.8 0 c5.3 0 7.2 0.3 6.2 1 -1 0.6 -1.1 1 -0.2 1 0.7 0 1.2 1.4 1.1 3.8 -0.1 3.3 -0.2 3.4 -0.9 1.2 -0.7 -2.2 -0.8 -2 -0.9 1.5 0 2.9 0.2 3.6 0.9 2.5 0.7 -1 1 1 0.9 6.5 0 5.4 -0.3 7.3 -0.9 6 -0.6 -1.4 -0.9 -1.5 -0.9 -0.4 -0.1 0.8 0.3 1.9 0.9 2.5 0.5 0.5 1.1 9.9 1.2 20.9 l0.3 20 17.3 0.3 c12.7 0.2 17.2 0.6 17.3 1.5 0 0.6 0.3 2.5 0.5 4.1 0.3 1.7 0.3 4 -0.1 5.3 l-0.5 2.3 -24.5 0 c-17.4 0 -24.6 -0.3 -25.1 -1.2z"/>
  <path d="M846.7 676.3 c-0.8 -1.3 3.6 -13.2 4.6 -12.6 0.6 0.3 0.7 0.1 0.4 -0.4 -1 -1.6 7.3 -24.4 8.6 -23.6 0.6 0.3 0.7 0.1 0.3 -0.5 -1 -1.6 0.4 -6.3 1.7 -5.5 0.5 0.3 0.7 0.1 0.4 -0.4 -0.8 -1.2 2.2 -10.5 3.1 -9.9 0.4 0.2 0.8 -0.8 0.8 -2.2 0.1 -1.5 2 -7.5 4.4 -13.4 l4.1 -10.8 4.2 -0.1 c2.3 -0.1 5.5 -0.3 7 -0.5 5.9 -0.6 7 0.7 11.5 13 2.4 6.4 4 12.2 3.6 12.8 -0.4 0.6 -0.3 0.8 0.3 0.5 1.4 -0.9 3.3 4.5 2.6 7.5 -0.3 1.6 -0.2 1.9 0.5 0.9 0.7 -1 1.5 0.2 3 4.5 1.1 3.3 4.8 13.3 8.1 22.3 3.4 9 6.1 17 6.1 17.7 0 1.1 -1.9 1.4 -7.9 1.4 l-7.9 0 -2.7 -7.7 c-1.5 -4.3 -2.8 -8.3 -3 -8.8 -0.2 -0.9 -9.6 -1.1 -30.8 -0.5 -1.1 0 -2.1 0.9 -2.4 2 -0.3 1.1 -0.9 2 -1.4 2 -0.5 0 -0.6 -0.8 -0.2 -1.7 0.3 -1 0.3 -1.5 -0.1 -1.2 -1.1 1 -1.6 5 -0.5 4.4 1.1 -0.8 1.2 -1 -1 5.5 -1.6 5 -2.1 5.5 -5 5.8 -1.8 0.2 -4 -0.3 -4.9 -1 -1.1 -0.9 -1.4 -1 -0.8 0 0.5 0.9 -0.2 1.2 -2.8 1.2 -1.9 0 -3.7 -0.3 -3.9 -0.7z m42.6 -29.5 c-0.2 -0.5 0.1 -0.8 0.6 -0.8 0.6 0 1.1 0.4 1.1 0.9 0 2 3.8 -0.2 4.3 -2.5 0.2 -1.4 0 -2.1 -0.6 -1.7 -0.6 0.4 -0.8 0 -0.4 -1 0.3 -1 0.3 -1.7 -0.2 -1.7 -0.5 0 -2.8 -6.1 -5.2 -13.5 -2.4 -7.4 -4.7 -13.4 -5.1 -13.5 -0.4 0 -1.4 2.6 -2.3 5.8 -1.5 5.1 -7.3 22.1 -9 26.4 -0.4 1.1 -0.1 1.7 1.2 2 3.3 0.7 16.1 0.3 15.6 -0.4z"/>
  <path d="M865.6 584.8 c-2.3 -3.3 -2 -7.5 0.9 -10.3 2.4 -2.5 5.5 -3.3 5.5 -1.5 0 0.6 -0.5 1 -1.1 1 -0.5 0 -0.7 0.5 -0.3 1.1 0.5 0.8 1 0.6 1.6 -0.5 0.5 -0.9 1.4 -1.6 2.1 -1.6 0.8 0 0.7 0.4 -0.2 0.9 -1.2 0.8 -0.9 1.1 1.2 1.6 3.2 0.9 4.3 3.7 2.7 7.6 -1.4 3.3 -5.7 5 -7.1 2.8 -0.6 -1 -0.9 -1.1 -0.9 -0.1 0 2 -2.8 1.4 -4.4 -1z"/>
  <path d="M893 585.9 c-1.2 -0.9 -1.2 -1 0.3 -0.5 2.7 0.8 2 -0.3 -0.8 -1.4 -1.9 -0.7 -2.5 -1.7 -2.5 -3.9 0 -1.7 0.7 -3.4 1.6 -3.9 0.9 -0.5 1.5 -1.3 1.4 -1.8 -0.1 -0.5 0.3 -0.9 1 -1 0.6 -0.2 0.7 -0.1 0 0.3 -0.5 0.2 -0.7 0.9 -0.4 1.5 0.4 0.7 1.4 0.1 2.5 -1.3 1.7 -2.2 1.9 -2.3 1.9 -0.4 0 1.5 0.2 1.7 0.9 0.6 0.5 -0.8 1.6 -1.1 2.6 -0.8 0.9 0.4 1.4 1.1 1.1 1.6 -0.4 0.5 -0.2 1.1 0.4 1.3 1.4 0.4 1.9 5 0.8 7.1 -0.5 1 -1.3 1.5 -1.9 1.2 -0.5 -0.4 -0.8 -0.1 -0.7 0.7 0.4 1.6 -6.1 2.1 -8.2 0.7z"/>
  <path d="M465 517 c0 -0.5 -0.6 -0.7 -1.4 -0.4 -1.9 0.7 -8.9 -2.3 -8.1 -3.6 0.3 -0.5 0 -0.7 -0.8 -0.4 -0.8 0.3 -2.2 -0.7 -3.3 -2.3 -1.7 -2.5 -1.9 -4.5 -1.7 -18.3 0.5 -37.4 5.1 -103.2 9.4 -133 2.3 -16.7 6.1 -37.6 7 -38.6 0.5 -0.6 0.6 -1.3 0.4 -1.6 -0.6 -0.6 2.3 -15 5.1 -25.5 1 -3.7 2.1 -6 2.7 -5.6 0.6 0.4 0.8 0 0.4 -1.1 -0.9 -2.4 3.2 -15.8 4.6 -14.9 0.6 0.3 0.7 0.1 0.3 -0.6 -1 -1.6 1.3 -8.3 2.6 -7.5 0.7 0.4 0.8 0.2 0.4 -0.4 -0.9 -1.6 3.4 -11.3 4.7 -10.5 0.6 0.3 0.7 0.1 0.3 -0.5 -0.9 -1.5 1.8 -5.5 2.9 -4.4 0.5 0.4 0.5 0.2 0.2 -0.5 -1.4 -2.3 13 -16.7 15.7 -15.7 0.7 0.3 2.6 0 4.1 -0.6 2.2 -0.8 2.6 -1.3 1.6 -1.9 -1.4 -0.9 -0.5 -1.2 8.1 -2.7 8.3 -1.4 24.9 3.7 24 7.5 -0.1 0.7 0.2 1 0.7 0.6 0.6 -0.3 1.5 0.4 2.1 1.5 0.8 1.4 0.8 2 0 2 -0.6 0 -0.8 0.5 -0.5 1 0.4 0.6 1 0.8 1.5 0.5 1.4 -0.9 2.3 6.1 1.6 11.8 -0.9 6.9 -2.6 11.9 -4.4 13.3 -0.8 0.6 -1.2 1.6 -0.8 2.2 1.1 1.8 -1.5 9.6 -2.7 8 -0.6 -0.9 -0.7 -0.7 -0.3 0.6 0.6 1.9 -2.3 12.6 -3.4 12.6 -0.4 0 -0.7 0.6 -0.7 1.3 0 0.6 -3.2 10.2 -7.1 21.3 -3.9 11 -7.4 21.2 -7.7 22.7 -0.4 1.5 -1.1 2.7 -1.6 2.7 -0.5 0 -0.6 0.6 -0.4 1.3 0.5 1.4 -5.7 22.4 -6.7 22.3 -0.3 -0.1 -1 0.2 -1.4 0.7 -0.4 0.4 -0.2 0.7 0.4 0.7 0.7 0 1.2 0.5 1.2 1.1 0 0.5 -0.4 0.7 -1 0.4 -0.5 -0.3 -0.7 0 -0.5 0.7 0.3 0.7 -1.2 8.3 -3.4 16.7 -2.1 8.5 -4.1 14.5 -4.4 13.5 -0.2 -1.1 -0.3 -0.1 -0.2 2.1 0.2 2.8 0.8 4.1 1.9 4.3 0.9 0.2 1.5 -0.2 1.4 -0.9 -0.2 -0.7 0.2 -1.3 0.9 -1.4 0.6 0 1.5 -0.4 2 -0.9 0.5 -0.5 0.3 -0.6 -0.4 -0.2 -0.7 0.4 -1.3 0.4 -1.3 0 0 -1.3 15.2 -20.9 16.3 -20.9 0.5 0 1.1 -0.9 1.3 -2 0.2 -1.1 1.3 -2.9 2.6 -4 1.3 -1.1 2.4 -2.4 2.6 -3 0.1 -0.5 0.8 -1 1.4 -1 0.7 0 1.3 -0.9 1.3 -2 0 -1 1.1 -2.5 2.3 -3.1 1.3 -0.6 1.9 -1.3 1.4 -1.5 -1.4 -0.5 18 -23.4 19.7 -23.4 0.8 0 1.5 -0.8 1.7 -1.8 0.3 -2.2 -0.1 -1.7 4.8 -5.6 2.2 -1.8 4.6 -2.9 5.3 -2.6 0.8 0.2 1.2 0.1 0.9 -0.4 -1 -1.5 8.1 -3.4 13.1 -2.7 7.2 1 8.3 1.5 8.3 3.7 0 1.3 0.7 1.9 2.1 1.9 1.3 0 1.8 -0.4 1.4 -1.2 -0.4 -0.7 0.7 0.2 2.5 2 2.1 2.3 2.9 3.9 2.5 5.3 -0.4 1.2 -0.2 1.9 0.7 1.9 1 0 1.1 0.2 0 0.8 -0.7 0.5 -1 1.6 -0.7 2.5 0.8 1.8 -1.2 6 -2.4 5.2 -0.5 -0.2 -1.5 0.3 -2.2 1.2 -1 1.2 -1 1.4 -0.1 0.9 0.6 -0.4 1.2 -0.3 1.2 0.2 0 1.1 -2.1 3 -3.4 3.1 -0.6 0 -1.1 0.8 -1.2 1.7 -0.3 2.1 -4.3 6.4 -5.8 6.1 -0.6 -0.1 -1 0.3 -0.9 1 0.2 0.6 -8.9 10.2 -20 21.3 -12.3 12.1 -20.3 20.8 -20.3 21.9 0 1.1 0.3 1.8 0.6 1.6 0.5 -0.3 10 17.7 10 19.1 0 0.3 -0.5 0.2 -1.2 -0.2 -0.7 -0.4 -0.8 -0.3 -0.4 0.5 0.4 0.6 1.1 0.9 1.6 0.6 1.1 -0.7 5.2 7 4.3 7.9 -0.4 0.3 -0.2 0.6 0.4 0.6 1.1 0 8.4 11.3 8.2 12.7 -0.4 2.1 0.2 3.3 1.5 3.3 1.9 0 9.8 10.9 8.9 12.3 -0.3 0.5 -0.1 0.7 0.5 0.3 1.3 -0.8 5.4 4.3 4.5 5.7 -0.3 0.5 -0.2 0.7 0.4 0.4 1.3 -0.8 8.6 6.7 7.6 7.8 -0.5 0.4 -0.3 0.5 0.3 0.2 1.2 -0.7 4.8 2.6 3.9 3.5 -0.3 0.2 0.1 0.5 0.8 0.5 2 0 10.7 6.6 10.7 8.1 0 0.7 0.8 1.2 1.8 1 0.9 -0.1 4.9 0.7 8.7 2 3.9 1.2 9.3 2.5 12 2.9 2.8 0.3 4.2 0.8 3.3 1 -3.3 0.8 -1.8 2.3 2.2 2.3 4 0 4 0 4 3.9 0 2.8 -0.8 4.9 -2.6 7.1 -3 3.5 -7.3 5.9 -9.3 5.2 -0.8 -0.2 -1.1 0 -0.7 0.6 0.8 1.3 -5.9 3.6 -7.5 2.6 -0.7 -0.4 -0.9 -0.3 -0.5 0.4 0.9 1.4 -10.9 2.6 -19.3 1.9 -8.6 -0.8 -17.2 -2.7 -16.6 -3.7 0.6 -0.9 -2.5 -2.3 -3.3 -1.5 -0.3 0.3 0.1 0.5 0.8 0.5 0.7 0 1.1 0.2 0.8 0.5 -0.8 0.9 -6.8 -1.6 -6.2 -2.6 0.3 -0.5 -0.3 -0.6 -1.2 -0.2 -1.3 0.5 -1.5 0.3 -0.9 -0.7 0.5 -0.8 0.4 -1.1 -0.3 -0.7 -1.4 0.9 -4.3 -0.3 -3.6 -1.4 0.3 -0.5 -0.3 -0.6 -1.2 -0.2 -1.1 0.4 -1.5 0.2 -1.1 -0.4 0.4 -0.6 -0.1 -1 -1.1 -0.9 -0.9 0 -1.6 -0.5 -1.4 -1.2 0.1 -0.8 -0.2 -1.1 -0.8 -0.7 -1.4 0.9 -5.2 -1.4 -4.4 -2.7 0.4 -0.7 0.3 -0.8 -0.4 -0.4 -0.7 0.4 -2.4 -0.5 -3.9 -2.1 -1.6 -1.5 -3.1 -2.8 -3.5 -2.8 -0.4 0 -1.3 -0.6 -2 -1.4 -1 -1 -1 -1.2 0 -0.7 0.6 0.4 1.2 0.5 1.2 0.2 0 -0.3 -1 -1 -2.1 -1.7 -1.7 -0.9 -2 -0.8 -1.4 0.3 0.5 0.7 -0.4 0.2 -1.8 -1.1 -1.5 -1.3 -2.4 -2.8 -2 -3.4 0.3 -0.6 0.1 -0.7 -0.4 -0.4 -1.1 0.7 -4.1 -2.1 -4.2 -3.8 -0.1 -0.5 -0.5 -1 -1 -1 -1.1 0 -6.9 -6.6 -13.9 -15.8 -5.8 -7.7 -7.3 -10.2 -6.7 -11.1 0.3 -0.3 0.2 -0.4 -0.2 -0.1 -1 0.8 -6.4 -7.8 -5.8 -9.3 0.3 -0.7 0.1 -1.1 -0.4 -0.8 -0.5 0.3 -2.8 -3.2 -5.1 -7.9 -2.3 -4.7 -4.6 -8.5 -5.1 -8.5 -0.5 0 -0.9 0.2 -0.9 0.5 0 0.2 -1.8 13.1 -3.9 28.7 -2.2 15.6 -4.5 32.7 -5.1 38 -0.8 6.2 -1.6 9.5 -2.3 9.1 -0.6 -0.4 -0.7 -0.1 -0.3 0.6 1.4 2.2 -0.4 6 -3.4 7.6 -1.9 1 -3 1.1 -3 0.5 0 -0.6 -0.5 -0.8 -1 -0.5 -0.6 0.4 -0.8 1 -0.5 1.4 0.2 0.5 -0.9 1.1 -2.6 1.5 -4.8 0.9 -12.9 0.7 -12.9 -0.4z"/>
  <path d="M222.5 515.3 c-5 -1 -10.6 -3.6 -11.5 -5.3 -2.2 -4.1 -0.4 -30.6 5 -72.8 1.1 -8.4 2 -16 2 -16.8 0 -0.8 0.4 -1.3 0.8 -1 0.5 0.3 0.7 -0.7 0.4 -2.2 -0.2 -1.5 1.2 -13.5 3.2 -26.7 10.6 -72.2 10.1 -69.4 13.2 -70.5 1.2 -0.5 2.5 -1.5 2.9 -2.2 0.6 -1 0.5 -1.1 -0.6 -0.1 -1.6 1.5 -3.3 1.7 -2.4 0.3 1.1 -1.8 8.6 -5.2 10.1 -4.6 0.8 0.3 1.3 0.2 1 -0.3 -0.8 -1.3 3.9 -1.8 13.4 -1.5 10.5 0.4 13 1.3 16.5 5.8 2.7 3.6 2.7 3.8 2.2 14.9 -0.6 13.8 -4.9 41.6 -5.7 37.2 -0.4 -1.6 -0.6 0.9 -0.6 5.8 0 4.8 0.1 8.7 0.3 8.7 0.1 0 1.4 -2.2 2.8 -5 1.4 -2.7 3 -5 3.6 -5 0.5 0 0.8 -0.4 0.5 -0.9 -0.6 -0.9 4.1 -7.6 5.4 -7.6 0.4 0 1.2 -0.4 1.7 -0.9 0.5 -0.5 0.3 -0.6 -0.4 -0.2 -2.2 1.3 -1.4 -0.5 3.4 -7.3 6 -8.4 14 -16.4 15.5 -15.5 0.6 0.4 0.8 0.3 0.4 -0.4 -0.8 -1.3 6.1 -6.2 12 -8.5 6.7 -2.6 17.2 -3.2 23.7 -1.3 3.1 0.9 5.9 2.1 6.3 2.7 0.4 0.8 -0.1 0.7 -1.7 -0.1 -2.2 -1 -2.3 -1 -0.6 0.4 1.1 0.8 2.5 1.2 3.2 1 0.7 -0.3 2.3 0.9 3.6 2.7 1.3 1.8 1.7 2.9 1 2.4 -0.9 -0.5 -1.2 -0.3 -0.9 0.6 0.3 0.8 1 1.3 1.6 1.2 1.4 -0.3 3.2 7.8 3.4 15.7 0.2 6.8 -0.9 23.4 -1.9 28.4 -0.8 4.4 1.3 2.3 4.8 -4.7 5.8 -11.6 12.2 -22.6 12.9 -22.2 0.4 0.3 0.7 -0.3 0.6 -1.3 0 -0.9 0.5 -1.6 1.2 -1.4 0.8 0.1 1.1 -0.2 0.7 -0.8 -0.9 -1.4 1.4 -5.2 2.7 -4.4 0.7 0.4 0.8 0.2 0.4 -0.5 -0.8 -1.3 4.4 -8.2 10.4 -13.8 3.4 -3.3 5.7 -4.4 4.4 -2.1 -0.4 0.8 -0.3 1 0.2 0.5 0.5 -0.5 0.9 -1.4 0.9 -2 0 -2.2 9.7 -5 17 -5 10.5 0 15.2 1.7 20.6 7.3 6.3 6.5 7.4 11.1 6.6 29.4 -0.3 7.8 -1.5 21.3 -2.7 30.1 -2.1 16.6 -7.2 60.6 -9.2 80.3 -0.7 6.4 -1.5 10.6 -1.9 9.5 -0.4 -1 -0.5 0.9 -0.2 4.2 0.8 8.9 -0.9 13.9 -5.3 16 -2.5 1.1 -4.7 1.5 -7.1 1 -2.4 -0.4 -3.3 -0.3 -2.8 0.4 0.4 0.7 -0.4 1.1 -2.2 1 -3.1 -0.1 -9.4 -1.6 -7.8 -1.8 1.2 -0.2 -1.6 -2.1 -3 -2.1 -0.5 0 -0.3 0.5 0.5 1.1 1.1 0.8 0.9 0.9 -1 0.3 -1.4 -0.3 -3.6 -1.9 -5 -3.3 -1.4 -1.5 -1.8 -1.8 -1 -0.7 1.5 2.1 1.5 2.1 -0.7 0.2 -4.6 -3.9 -5.6 -9.2 -4.9 -25.4 1.1 -23.5 3.6 -52.2 7.9 -89.8 0.7 -6.1 1.1 -11.6 1 -12.1 -0.4 -1.2 -6.3 3.6 -6.3 5.1 0 0.5 0.7 0.1 1.6 -1 1.3 -1.5 1.3 -1.3 -0.1 1.1 -1 1.7 -2.4 3.6 -3.3 4.3 -0.9 0.6 -1.3 1.2 -0.9 1.2 0.4 0 0.3 0.9 -0.3 2 -0.6 1.1 -1.6 1.7 -2.2 1.4 -0.7 -0.4 -0.8 -0.3 -0.4 0.4 0.9 1.5 -3.4 9.3 -4.7 8.5 -0.6 -0.3 -0.7 -0.1 -0.3 0.5 0.9 1.4 -1.4 6.3 -2.7 5.5 -0.6 -0.3 -0.7 -0.1 -0.4 0.5 0.9 1.3 -0.2 4.4 -1.3 3.7 -0.5 -0.3 -1.2 0 -1.6 0.6 -0.4 0.8 -0.3 0.9 0.4 0.5 1.6 -1 1.6 -0.7 -1.6 6.3 -1.6 3.5 -3.3 6.3 -3.8 6.3 -0.5 0 -1.1 0.2 -1.4 0.5 -0.3 0.4 0.1 0.2 0.9 -0.2 1.1 -0.6 1.3 -0.4 0.8 0.9 -0.4 1 -0.7 1.9 -0.7 2.2 0 0.2 -0.8 0.1 -1.7 -0.2 -1.3 -0.4 -1.4 -0.3 -0.5 0.3 0.9 0.7 1 1.7 0.1 4.1 -0.6 1.8 -1.5 3.2 -2 3.2 -0.5 0 -0.8 0.3 -0.7 0.8 0.4 1.1 -2.4 9.2 -3.1 8.8 -0.3 -0.2 -0.7 0.6 -0.7 1.7 -0.1 1.2 -1 4 -1.9 6.2 -1 2.2 -1.8 4.2 -1.7 4.5 0.2 1.5 -5.6 19.2 -5.9 18.1 -0.2 -0.6 -0.5 0.7 -0.5 3 -0.1 2.3 -0.5 4.4 -1 4.8 -0.5 0.3 -1 2.4 -1.2 4.5 -0.4 4.9 -2.8 10.9 -4.1 10.2 -0.5 -0.3 -0.8 0.2 -0.7 1.2 0.1 1.2 -1.9 2.8 -6.4 5 -6.1 3.2 -6.9 3.4 -14.5 2.9 -8 -0.5 -13.9 -2.2 -12.9 -3.8 0.3 -0.5 -0.2 -0.6 -1 -0.3 -1.7 0.7 -4.1 -2.7 -5 -7.1 -0.4 -1.7 0.5 -14 1.9 -27.5 1.4 -13.5 3.9 -38.9 5.5 -56.5 1.6 -17.6 3.1 -33 3.3 -34.2 0.6 -3.1 -1.7 -2.9 -3.1 0.3 -0.7 1.5 -1.7 2.2 -2.4 1.8 -0.6 -0.4 -0.8 -0.3 -0.4 0.4 0.8 1.4 -6.8 13.5 -7.9 12.5 -0.4 -0.5 -0.5 -0.3 -0.2 0.3 0.7 1.3 -4.1 11 -5.3 10.7 -0.5 -0.2 -0.6 0.5 -0.3 1.4 0.5 1.2 0.3 1.4 -0.7 0.8 -0.9 -0.5 -1.1 -0.4 -0.6 0.4 0.4 0.6 -1.1 5.2 -3.4 10.1 -2.3 4.9 -6 14.1 -8.4 20.5 -2.3 6.3 -4.6 11.2 -5.1 10.8 -0.4 -0.5 -0.5 0 -0.2 0.9 0.8 2.2 -4.6 18.2 -5.7 17.1 -0.5 -0.4 -0.6 -0.3 -0.2 0.4 0.4 0.7 0.3 2.4 0 4 -0.7 2.5 -0.8 2.6 -1.6 0.8 -0.7 -1.6 -0.7 -1.5 -0.3 0.5 0.3 1.4 -1.5 9.8 -4.2 19.5 -4.4 16.1 -4.9 17.2 -9 21.4 -2.7 2.7 -4.8 4.1 -5.8 3.7 -0.8 -0.3 -1.5 0 -1.5 0.5 0 0.6 -0.9 0.9 -2 0.6 -1.2 -0.3 -1.8 -0.1 -1.4 0.5 0.5 0.7 -0.4 0.9 -2.4 0.6 -1.7 -0.2 -2.9 -0.1 -2.6 0.4 0.5 0.8 -9.4 0.9 -13.1 0.1z"/>
 </g>
 <g fill="#fabaae">
  <path d="M715 502.3 c-0.8 -0.3 -2.3 -1.5 -3.3 -2.7 -1 -1.1 -1.5 -1.4 -1.1 -0.6 0.7 1.3 0.5 1.3 -0.9 0.1 -0.9 -0.7 -1.4 -1.8 -1 -2.4 0.3 -0.5 0.1 -0.7 -0.5 -0.4 -1.4 0.9 -11.6 -11.9 -10.6 -13.4 0.4 -0.7 0.3 -0.9 -0.3 -0.6 -1.3 0.8 -3.7 -1.8 -2.9 -3.2 0.3 -0.5 -0.4 -2 -1.5 -3.2 l-2.1 -2.4 1.6 3 1.7 3 -2.5 -2.9 c-1.4 -1.7 -2.3 -3.3 -2 -3.8 0.3 -0.4 0.1 -0.8 -0.5 -0.8 -1 0 -13.1 -17.2 -13.1 -18.5 0 -0.3 0.5 -0.3 1.2 0.1 0.7 0.4 0.8 0.3 0.4 -0.5 -0.4 -0.6 -1.1 -0.9 -1.6 -0.6 -0.5 0.3 -1.4 -0.4 -2 -1.5 -0.6 -1.1 -0.8 -2 -0.5 -2 0.3 0 -0.4 -0.9 -1.5 -2 -1.1 -1.1 -1.7 -2.6 -1.4 -3.5 0.4 -0.9 0.3 -1.5 -0.2 -1.3 -0.5 0.2 -1 -0.1 -1.1 -0.5 -0.1 -0.5 -0.8 -1.4 -1.7 -2 -0.8 -0.7 -1.6 -1.8 -1.8 -2.6 -0.2 -0.8 -1.1 -2.3 -2 -3.3 -2 -2 -2.4 -4.3 -0.6 -3.2 0.7 0.5 0.8 0.3 0.4 -0.5 -0.5 -0.7 -1.1 -1 -1.4 -0.7 -0.9 1 -3.4 -3.3 -2.6 -4.6 0.4 -0.6 0.3 -0.8 -0.3 -0.5 -1.5 1 -12.5 -21 -11.8 -23.6 0.4 -1.5 0.3 -1.8 -0.3 -0.9 -0.7 1 -1.2 0.5 -2.2 -1.8 -0.7 -1.8 -1.3 -3.8 -1.3 -4.6 0 -0.8 -0.4 -1.4 -0.8 -1.4 -1 0 -6 -14 -5.3 -15.1 0.3 -0.5 0 -0.9 -0.7 -0.9 -0.7 0 -0.9 -1 -0.7 -2.5 0.3 -1.3 0.2 -2.2 -0.3 -2 -1.9 1.2 -4.8 -20.7 -4.2 -31.5 0.5 -10.3 3.8 -25.4 5.4 -24.5 0.4 0.3 0.5 -0.5 0.1 -1.7 -0.3 -1.3 -0.1 -1.9 0.5 -1.5 0.6 0.4 1.4 0 1.7 -0.9 0.3 -0.8 0.2 -1.2 -0.4 -0.9 -1.4 0.9 -1.3 0.1 0.7 -3.9 0.9 -1.9 2.1 -3.2 2.6 -2.9 0.6 0.3 0.7 0.1 0.3 -0.5 -0.9 -1.6 2.1 -7.2 3.9 -7.2 0.8 0 1.5 -0.5 1.5 -1.1 0 -0.5 -0.5 -0.7 -1.2 -0.3 -1.7 1.1 2.4 -4.5 7.8 -10.4 2.5 -2.9 5.1 -4.9 5.6 -4.5 0.6 0.3 0.8 0.1 0.4 -0.5 -0.3 -0.5 1.3 -2.5 3.6 -4.3 7.1 -5.4 7.3 -5.5 6.4 -4.2 -0.5 0.9 -0.2 1.1 0.8 0.7 0.9 -0.3 1.3 -1 1.1 -1.5 -0.3 -0.4 2.6 -2.4 6.4 -4.4 6.6 -3.3 10.4 -4.7 7.1 -2.5 -1.3 0.9 -1.3 1 0 0.9 0.8 0 2.4 -0.4 3.5 -0.9 l2 -0.9 -2 -0.1 c-1.1 -0.1 0.5 -1 3.5 -2.1 3 -1.1 6.5 -1.8 7.7 -1.6 1.2 0.2 2.4 0 2.6 -0.6 0.2 -0.6 5.6 -1 13.2 -1.1 15.2 -0.1 28 2.2 28.8 5.3 0.2 1 1.1 1.8 2 1.8 0.9 0 1.4 -0.4 1.1 -0.9 -0.3 -0.5 -1 -0.6 -1.5 -0.3 -0.5 0.4 -0.9 0.1 -0.9 -0.5 0 -0.7 0.7 -0.9 1.6 -0.6 0.9 0.3 2 0.6 2.5 0.6 0.6 0 0.7 0.5 0.3 1.2 -0.4 0.7 -0.3 0.8 0.4 0.4 2 -1.2 15.9 6.4 14.4 7.8 -0.4 0.5 0 0.6 0.8 0.5 1.8 -0.5 8.2 3.9 7.5 5.1 -0.3 0.4 0.3 0.7 1.3 0.6 1 0 1.6 0.5 1.4 1.4 -0.2 0.8 0 1.2 0.4 0.8 1 -1.1 3.5 1.2 2.7 2.5 -0.3 0.6 -0.1 0.7 0.5 0.3 1.1 -0.7 5.9 5 5.4 6.5 -0.1 0.5 0.4 0.8 1 0.7 0.8 -0.2 1.2 0.5 1 1.5 -0.2 1 0.3 1.6 1 1.5 0.8 -0.2 1.2 0.4 1 1.6 -0.2 1 0.1 1.5 0.6 1.2 1.5 -0.9 3.3 1.9 2.6 4 -0.4 1.4 -0.3 1.5 0.4 0.6 0.7 -1.1 1 -1.1 1.5 0.2 0.4 1.1 0.1 1.6 -1 1.6 -2 0 -1.1 1.1 1.2 1.4 3.7 0.5 9.9 20.2 11 35.2 0.7 9.1 -1.2 26.2 -3.5 31.4 -1 2.5 -1 2.5 -0.5 -0.3 0.4 -1.9 0.2 -2.6 -0.5 -2.2 -0.5 0.3 -0.9 2.7 -0.8 5.3 0.2 5 -4.7 19.7 -6.2 18.7 -0.9 -0.6 -2.3 2.5 -1.5 3.3 0.3 0.3 0.5 -0.1 0.5 -0.8 0 -0.7 0.2 -1.1 0.5 -0.8 0.9 0.9 -6.5 15.8 -7.8 15.5 -0.6 -0.1 -1.2 0.7 -1.2 1.8 -0.1 3.1 -1.5 6.6 -2.6 6 -0.5 -0.3 -0.6 0.2 -0.2 1.1 0.5 1.3 0.3 1.5 -0.7 0.9 -0.9 -0.5 -1.1 -0.4 -0.6 0.3 0.9 1.5 -1.1 5.3 -2.6 4.9 -0.6 -0.1 -1.3 0.4 -1.6 1.2 -0.3 0.9 0 1.1 0.8 0.6 1.6 -1 -1.6 5.1 -4.1 7.6 -1 1 -1.9 2.2 -1.9 2.7 0.2 1.8 -4.2 8.2 -5.2 7.6 -0.7 -0.4 -0.8 -0.2 -0.4 0.5 0.7 1 -6.8 14.1 -8.1 14.1 -0.2 0 -0.1 -0.6 0.3 -1.2 0.5 -0.9 0.2 -0.9 -0.9 0.1 -1.8 1.5 -2.3 2.6 -0.7 1.6 0.6 -0.3 1 -0.3 1 0 0 0.9 -10 15.5 -10.6 15.5 -0.3 0 -0.3 -0.4 0 -0.8 0.3 -0.5 -0.1 -0.9 -0.9 -0.9 -1.4 0 -1.6 1.8 -0.3 2.8 0.5 0.3 -0.7 2.2 -2.6 4.2 -1.8 2 -3.1 3.7 -2.9 3.7 0.3 0 0 0.7 -0.7 1.5 -1.1 1.3 -1.5 1.3 -2.3 0.3 -0.6 -0.9 -0.7 -0.8 -0.3 0.5 0.4 1.3 -0.9 3.7 -4.1 7.7 -5.4 6.5 -9.5 9.4 -12.4 8.7 -1 -0.3 -1.7 -0.1 -1.3 0.4 0.6 1 -1.2 1.1 -3.6 0.2z m12.6 -123.7 c3.1 -0.8 7.4 -2.6 9.5 -4.1 2.2 -1.4 4.5 -2.3 5.2 -1.9 0.7 0.4 0.9 0.4 0.5 0 -0.4 -0.5 1.3 -3.2 3.7 -6.2 6.3 -7.7 9.2 -17.5 7.8 -25.9 -0.6 -3.3 -1.8 -7.7 -2.6 -9.8 -0.9 -2 -1.5 -3.9 -1.4 -4.2 0.1 -0.3 -0.8 -1.2 -2 -2 -1.3 -0.9 -2.3 -2.2 -2.3 -2.8 -0.1 -0.7 -2.5 -2.8 -5.5 -4.7 -2.9 -1.9 -5.2 -3.6 -5 -3.8 0.2 -0.2 1.4 0.3 2.7 1.2 1.2 0.9 2.7 1.6 3.3 1.6 0.5 0 -0.5 -0.9 -2.3 -2 -1.8 -1.1 -3.7 -1.8 -4.2 -1.5 -0.4 0.3 -2.5 -0.1 -4.6 -0.9 -6.8 -2.3 -13.5 -2.7 -19.9 -1 -3.3 0.8 -6.8 1.6 -7.7 1.7 -0.9 0.1 -1.5 0.3 -1.3 0.6 0.9 0.9 -3.5 3.2 -4.8 2.5 -0.6 -0.4 -0.9 -0.4 -0.5 0.1 0.4 0.4 -1.5 3.2 -4.2 6.2 -2.8 3 -5 5.9 -5 6.4 0 0.6 -0.5 0.7 -1.2 0.3 -0.6 -0.4 -0.8 -0.3 -0.5 0.3 0.3 0.5 0 2.7 -0.8 4.9 -0.8 2.1 -1.5 7.1 -1.6 10.9 -0.1 3.9 -0.4 5.8 -0.6 4.3 -0.2 -1.6 -0.8 -2.8 -1.2 -2.8 -0.4 0 -0.6 1.4 -0.3 3 0.2 1.7 0.9 3 1.6 3 0.6 0 1.7 1.9 2.4 4.2 0.7 2.3 2.2 5.4 3.3 6.9 1 1.5 1.9 3.1 1.9 3.6 0 0.4 -0.5 0.1 -1 -0.7 -0.7 -1 -1 -1.1 -1 -0.2 0 0.7 0.8 1.5 1.8 1.9 2.7 1 5.2 3.5 4.5 4.6 -0.3 0.5 -0.2 0.7 0.4 0.4 0.6 -0.4 1.9 0 2.9 0.8 1.9 1.5 1.9 1.5 0 0.8 -1.3 -0.4 -1.7 -0.3 -1.2 0.5 0.3 0.6 1.9 1 3.4 1 2.6 0 8.6 2.5 7.8 3.3 -1.1 1.2 15.1 0.8 20 -0.5z m-45.2 -40.9 c0.4 -1.9 0.3 -2.6 -0.4 -2.2 -0.5 0.3 -1 1.8 -1 3.2 0 3.2 0.5 2.8 1.4 -1z m119.5 -15.9 c0 -0.7 -0.4 -2.2 -0.9 -3.3 -0.7 -1.6 -0.9 -1.4 -0.7 1.3 0.1 1.7 0.5 3.2 0.9 3.2 0.4 0 0.8 -0.6 0.7 -1.2z"/>
 </g>
</svg>